<svg width="566" height="505" viewBox="0 0 566 505" fill="none" xmlns="http://www.w3.org/2000/svg">
<path d="M38.0413 436.363L174.041 437.863C199.541 436.363 212.972 435.979 212.041 417.863C207.545 394.776 197.541 388.863 174.041 376.363C151.844 365.112 139.755 358.477 119.041 345.863C101.051 333.479 93.0538 325.555 82.0413 309.863C68.6071 291.616 62.3786 281.197 57.0413 259.863C53.6554 250.346 53.3404 246.032 52.0413 237.863C50.4305 229.75 49.7623 224.167 49.5413 213.863C49.7114 195.217 50.5413 196.363 51.5413 190.363C52.5413 184.363 56.8074 162.514 58.0413 159.863C65.0299 138.568 69.8919 127.189 81.0413 108.363C98.5559 80.696 110.328 67.5217 134.541 47.8629C160.601 28.0234 176.932 20.8252 207.541 11.3629C224.484 5.73326 234.907 4.03474 254.041 1.86286C281.761 -0.321685 297.305 -0.255956 325.041 4.86286C346.24 8.67954 357.683 12.1154 377.541 19.8629C394.634 27.1583 403.73 31.96 419.041 41.8629C431.014 49.6953 437.468 54.6283 448.041 65.3629C460.211 76.7439 466.433 83.8829 476.541 97.8629C484.466 110.744 488.283 118.086 494.041 131.363L502.541 153.863C506.513 165.492 510.255 190.173 509.541 191.863L510.21 199.447C510.509 202.165 510.833 205.413 511.041 208.863C511.491 216.333 511.239 224.745 511.06 230.75L511.041 231.363C510.822 243.348 508.079 252.099 507.541 255.363C507.004 258.627 504.645 272.713 499.041 287.863C496.495 297.205 491.87 307.465 488.541 312.863L460.541 362.363L435.041 404.863L418.241 432.863C415.685 436.41 416.74 437.345 422.541 437.363L561.041 436.363C565.415 436.439 565.894 437.401 564.041 440.363L530.541 500.863C528.836 503.318 526.726 503.876 521.541 503.863H308.541C303.758 503.959 302.779 502.857 302.541 499.863L424.041 290.863C437.14 266.441 440.526 253.744 443.541 231.863C445.285 208.341 443.73 198.456 440.541 181.363C433.569 156.017 426.927 143.834 412.041 124.363C396.402 105.675 384.957 98.2151 368.408 87.4278L367.541 86.8629C352.454 78.9088 341.967 75.2578 332.541 72.8629C319.43 69.1316 306.507 67.4055 291.041 66.8629C249.798 66.2098 232.994 70.4942 211.541 79.3629C190.825 88.7364 180.844 95.3239 164.541 109.863C150.133 123.374 142.647 132.004 131.541 153.363C121.285 172.002 120.122 181.679 118.041 199.863C116.094 231.576 119.131 250.252 143.541 278.363C153.295 288.816 160.169 293.069 174.041 300.863C198.78 314.771 211.295 323.58 234.041 339.363C243.633 345.385 253.118 352.287 270.041 376.363C276.833 391.083 277.92 400.437 278.041 417.863L278.037 417.952C277.666 425.727 277.457 430.113 275.541 437.863C273.725 449.496 271.7 455.893 264.541 466.863C256.779 477.769 251.23 482.867 240.041 490.863C236.859 493.296 221.617 499.238 219.041 499.889C220.454 499.717 215.426 500.633 204.541 502.086C193.657 503.539 194.122 503.363 191.041 503.363H114.541L15.0413 503.863C2.85037 504.047 1.54126 504.363 0.54126 500.863C16.1622 475.479 22.4203 461.747 38.0413 436.363Z" fill="#D9D9D9"/>
<path d="M509.541 191.863C510.255 190.173 506.513 165.492 502.541 153.863L494.041 131.363C488.283 118.086 484.466 110.744 476.541 97.8629C466.433 83.8829 460.211 76.7438 448.041 65.3629C437.468 54.6283 431.014 49.6953 419.041 41.8629C403.73 31.96 394.634 27.1583 377.541 19.8629C357.683 12.1154 346.24 8.67954 325.041 4.86286C297.305 -0.255956 281.761 -0.321685 254.041 1.86286C234.907 4.03474 224.484 5.73326 207.541 11.3629C176.932 20.8252 160.601 28.0234 134.541 47.8629C110.328 67.5217 98.5559 80.696 81.0413 108.363C69.8919 127.189 65.0299 138.568 58.0413 159.863C56.8073 162.514 52.5413 184.363 51.5413 190.363C50.5413 196.363 49.7114 195.217 49.5413 213.863C49.7623 224.167 50.4305 229.75 52.0413 237.863C53.3404 246.032 53.6554 250.346 57.0413 259.863C62.3786 281.197 68.6071 291.616 82.0413 309.863C93.0538 325.555 101.051 333.479 119.041 345.863C139.755 358.477 151.844 365.112 174.041 376.363C197.541 388.863 207.545 394.776 212.041 417.863C212.972 435.979 199.541 436.363 174.041 437.863L38.0413 436.363C22.4203 461.747 16.1622 475.479 0.54126 500.863C1.54126 504.363 2.85037 504.047 15.0413 503.863L114.541 503.363C114.541 503.363 183.541 503.363 191.041 503.363C194.122 503.363 193.657 503.539 204.541 502.086C215.426 500.633 220.454 499.717 219.041 499.889C221.617 499.238 236.859 493.296 240.041 490.863C251.23 482.867 256.779 477.769 264.541 466.863C271.7 455.893 273.725 449.496 275.541 437.863C277.464 430.084 277.668 425.693 278.041 417.863C277.92 400.437 276.833 391.083 270.041 376.363C253.118 352.287 243.633 345.385 234.041 339.363C211.295 323.58 198.78 314.771 174.041 300.863C160.169 293.069 153.295 288.816 143.541 278.363C119.131 250.252 116.094 231.576 118.041 199.863C120.122 181.679 121.285 172.002 131.541 153.363C142.647 132.004 150.133 123.374 164.541 109.863C180.844 95.3239 190.825 88.7364 211.541 79.3629C232.994 70.4942 249.798 66.2098 291.041 66.8629C306.507 67.4055 319.43 69.1316 332.541 72.8629C341.967 75.2577 352.454 78.9088 367.541 86.8629C384.561 97.9594 396.13 105.351 412.041 124.363C426.927 143.834 433.569 156.017 440.541 181.363C443.73 198.456 445.285 208.341 443.541 231.863C440.526 253.744 437.14 266.441 424.041 290.863L302.541 499.863C302.779 502.857 303.758 503.959 308.541 503.863H521.541C526.726 503.876 528.836 503.318 530.541 500.863L564.041 440.363C565.894 437.401 565.415 436.439 561.041 436.363L422.541 437.363C416.74 437.345 415.685 436.41 418.241 432.863L435.041 404.863L460.541 362.363L488.541 312.863C491.87 307.465 496.495 297.205 499.041 287.863C504.645 272.713 507.004 258.627 507.541 255.363C508.079 252.099 510.822 243.348 511.041 231.363C511.221 225.327 511.507 216.591 511.041 208.863M509.541 191.863C509.227 192.606 510.512 200.084 511.041 208.863M509.541 191.863L511.041 208.863" stroke="black"/>
</svg>
